<?xml version="1.0" encoding="UTF-8"?>
<!DOCTYPE svg PUBLIC "-//W3C//DTD SVG 1.1//EN" "http://www.w3.org/Graphics/SVG/1.1/DTD/svg11.dtd">
<svg version="1.2" width="51.58mm" height="51.58mm" viewBox="0 0 5158 5158" preserveAspectRatio="xMidYMid" fill-rule="evenodd" stroke-width="28.222" stroke-linejoin="round" xmlns="http://www.w3.org/2000/svg" xmlns:ooo="http://xml.openoffice.org/svg/export" xmlns:xlink="http://www.w3.org/1999/xlink" xmlns:presentation="http://sun.com/xmlns/staroffice/presentation" xmlns:smil="http://www.w3.org/2001/SMIL20/" xmlns:anim="urn:oasis:names:tc:opendocument:xmlns:animation:1.0" xmlns:svg="urn:oasis:names:tc:opendocument:xmlns:svg-compatible:1.0" xml:space="preserve">
 <defs class="ClipPathGroup">
  <clipPath id="presentation_clip_path" clipPathUnits="userSpaceOnUse">
   <rect x="0" y="0" width="5158" height="5158"/>
  </clipPath>
  <clipPath id="presentation_clip_path_shrink" clipPathUnits="userSpaceOnUse">
   <rect x="5" y="5" width="5148" height="5148"/>
  </clipPath>
 </defs>
 <defs class="TextShapeIndex">
  <g ooo:slide="id1" ooo:id-list="id3 id4 id5 id6 id7 id8 id9 id10 id11 id12 id13 id14"/>
 </defs>
 <defs class="EmbeddedBulletChars">
  <g id="bullet-char-template-57356" transform="scale(0.00048828125,-0.00048828125)">
   <path d="M 580,1141 L 1163,571 580,0 -4,571 580,1141 Z"/>
  </g>
  <g id="bullet-char-template-57354" transform="scale(0.00048828125,-0.00048828125)">
   <path d="M 8,1128 L 1137,1128 1137,0 8,0 8,1128 Z"/>
  </g>
  <g id="bullet-char-template-10146" transform="scale(0.00048828125,-0.00048828125)">
   <path d="M 174,0 L 602,739 174,1481 1456,739 174,0 Z M 1358,739 L 309,1346 659,739 1358,739 Z"/>
  </g>
  <g id="bullet-char-template-10132" transform="scale(0.00048828125,-0.00048828125)">
   <path d="M 2015,739 L 1276,0 717,0 1260,543 174,543 174,936 1260,936 717,1481 1274,1481 2015,739 Z"/>
  </g>
  <g id="bullet-char-template-10007" transform="scale(0.00048828125,-0.00048828125)">
   <path d="M 0,-2 C -7,14 -16,27 -25,37 L 356,567 C 262,823 215,952 215,954 215,979 228,992 255,992 264,992 276,990 289,987 310,991 331,999 354,1012 L 381,999 492,748 772,1049 836,1024 860,1049 C 881,1039 901,1025 922,1006 886,937 835,863 770,784 769,783 710,716 594,584 L 774,223 C 774,196 753,168 711,139 L 727,119 C 717,90 699,76 672,76 641,76 570,178 457,381 L 164,-76 C 142,-110 111,-127 72,-127 30,-127 9,-110 8,-76 1,-67 -2,-52 -2,-32 -2,-23 -1,-13 0,-2 Z"/>
  </g>
  <g id="bullet-char-template-10004" transform="scale(0.00048828125,-0.00048828125)">
   <path d="M 285,-33 C 182,-33 111,30 74,156 52,228 41,333 41,471 41,549 55,616 82,672 116,743 169,778 240,778 293,778 328,747 346,684 L 369,508 C 377,444 397,411 428,410 L 1163,1116 C 1174,1127 1196,1133 1229,1133 1271,1133 1292,1118 1292,1087 L 1292,965 C 1292,929 1282,901 1262,881 L 442,47 C 390,-6 338,-33 285,-33 Z"/>
  </g>
  <g id="bullet-char-template-9679" transform="scale(0.00048828125,-0.00048828125)">
   <path d="M 813,0 C 632,0 489,54 383,161 276,268 223,411 223,592 223,773 276,916 383,1023 489,1130 632,1184 813,1184 992,1184 1136,1130 1245,1023 1353,916 1407,772 1407,592 1407,412 1353,268 1245,161 1136,54 992,0 813,0 Z"/>
  </g>
  <g id="bullet-char-template-8226" transform="scale(0.00048828125,-0.00048828125)">
   <path d="M 346,457 C 273,457 209,483 155,535 101,586 74,649 74,723 74,796 101,859 155,911 209,963 273,989 346,989 419,989 480,963 531,910 582,859 608,796 608,723 608,648 583,586 532,535 482,483 420,457 346,457 Z"/>
  </g>
  <g id="bullet-char-template-8211" transform="scale(0.00048828125,-0.00048828125)">
   <path d="M -4,459 L 1135,459 1135,606 -4,606 -4,459 Z"/>
  </g>
  <g id="bullet-char-template-61548" transform="scale(0.00048828125,-0.00048828125)">
   <path d="M 173,740 C 173,903 231,1043 346,1159 462,1274 601,1332 765,1332 928,1332 1067,1274 1183,1159 1299,1043 1357,903 1357,740 1357,577 1299,437 1183,322 1067,206 928,148 765,148 601,148 462,206 346,322 231,437 173,577 173,740 Z"/>
  </g>
 </defs>
 <g>
  <g id="id2" class="Master_Slide">
   <g id="bg-id2" class="Background"/>
   <g id="bo-id2" class="BackgroundObjects"/>
  </g>
 </g>
 <g class="SlideGroup">
  <g>
   <g id="container-id1">
    <g id="id1" class="Slide" clip-path="url(#presentation_clip_path)">
     <g class="Page">
      <g class="com.sun.star.drawing.PolyPolygonShape">
       <g id="id3">
        <rect class="BoundingBox" stroke="none" fill="none" x="1097" y="856" width="3625" height="2741"/>
        <path fill="rgb(255,128,0)" stroke="none" d="M 1098,2183 L 1628,1653 2512,2537 4189,857 4720,1388 2512,3595 1098,2183 Z "/>
       </g>
      </g>
      <g class="com.sun.star.drawing.PolyPolygonShape">
       <g id="id4">
        <rect class="BoundingBox" stroke="none" fill="none" x="997" y="756" width="3825" height="2941"/>
        <path fill="none" stroke="rgb(0,0,0)" stroke-width="200" stroke-linejoin="round" d="M 1098,2183 L 1628,1653 2512,2537 4189,857 4720,1388 2512,3595 1098,2183 Z "/>
       </g>
      </g>
      <g class="com.sun.star.drawing.PolyPolygonShape">
       <g id="id5">
        <rect class="BoundingBox" stroke="none" fill="none" x="703" y="703" width="2001" height="3752"/>
        <path fill="rgb(129,212,26)" stroke="none" d="M 2702,1408 L 2655,1404 2578,1401 2502,1404 2425,1411 2349,1424 2274,1441 2201,1463 2129,1491 2059,1522 1990,1559 1925,1600 1862,1645 1802,1694 1746,1746 1694,1802 1645,1862 1600,1925 1559,1990 1522,2059 1491,2129 1463,2201 1441,2274 1424,2349 1411,2425 1404,2502 1401,2579 1404,2655 1411,2732 1424,2808 1441,2883 1463,2956 1491,3028 1522,3098 1559,3167 1600,3232 1645,3295 1694,3355 1746,3411 1802,3463 1862,3512 1925,3557 1990,3598 2059,3635 2129,3666 2201,3694 2274,3716 2349,3733 2425,3746 2502,3753 2578,3756 2655,3753 2702,3749 2702,4449 2701,4449 2578,4453 2456,4449 2334,4437 2213,4417 2094,4389 1977,4354 1862,4310 1750,4260 1642,4202 1537,4137 1437,4065 1343,3987 1253,3904 1170,3814 1092,3720 1020,3620 955,3515 897,3407 847,3295 803,3180 768,3063 740,2944 720,2823 708,2701 704,2579 708,2456 720,2334 740,2213 768,2094 803,1977 847,1862 897,1750 955,1642 1020,1537 1092,1437 1170,1343 1253,1253 1343,1170 1437,1092 1537,1020 1642,955 1750,897 1862,847 1977,803 2094,768 2213,740 2334,720 2456,708 2578,704 2701,708 2702,708 2702,1408 Z "/>
       </g>
      </g>
      <g class="com.sun.star.drawing.PolyPolygonShape">
       <g id="id6">
        <rect class="BoundingBox" stroke="none" fill="none" x="603" y="603" width="2101" height="3952"/>
        <path fill="rgb(0,0,0)" stroke="none" d="M 2702,809 L 2694,808 2579,804 2463,808 2347,819 2233,838 2120,865 2009,898 1901,939 1795,987 1692,1042 1593,1104 1498,1171 1409,1245 1324,1324 1245,1409 1171,1498 1104,1593 1042,1692 987,1795 939,1901 898,2009 865,2120 838,2233 819,2347 808,2463 804,2579 808,2694 819,2810 838,2924 865,3037 898,3148 939,3256 987,3362 1042,3465 1104,3564 1171,3659 1245,3748 1324,3833 1409,3912 1498,3986 1593,4053 1692,4115 1795,4170 1901,4218 2009,4259 2120,4292 2233,4319 2347,4338 2463,4349 2579,4353 2694,4349 2702,4348 2702,4549 2581,4553 2579,4553 2576,4553 2453,4549 2451,4549 2450,4549 2450,4549 2449,4549 2448,4549 2447,4548 2447,4548 2324,4536 2318,4536 2197,4516 2196,4516 2195,4516 2194,4515 2192,4515 2191,4514 2191,4514 2071,4486 2070,4486 2070,4486 2069,4486 2068,4486 2066,4485 2065,4485 2065,4485 2065,4485 1948,4449 1947,4449 1947,4449 1946,4449 1945,4449 1945,4449 1944,4448 1943,4448 1942,4447 1827,4404 1825,4403 1824,4403 1824,4403 1823,4403 1822,4402 1821,4402 1821,4402 1821,4402 1709,4351 1703,4348 1595,4290 1595,4290 1594,4290 1594,4290 1594,4290 1594,4289 1593,4289 1593,4289 1592,4289 1592,4289 1592,4289 1592,4288 1592,4288 1592,4288 1591,4288 1591,4288 1591,4288 1591,4288 1590,4288 1590,4287 1589,4287 1589,4287 1589,4287 1589,4287 1589,4287 1484,4222 1482,4221 1482,4220 1481,4220 1481,4219 1480,4219 1479,4219 1479,4218 1379,4146 1378,4146 1377,4145 1377,4145 1376,4145 1376,4144 1375,4144 1374,4142 1279,4065 1279,4065 1278,4065 1278,4064 1278,4064 1277,4063 1277,4063 1275,4062 1275,4061 1274,4060 1185,3977 1180,3972 1097,3883 1096,3882 1095,3882 1094,3880 1094,3880 1093,3879 1093,3879 1092,3879 1092,3878 1092,3878 1015,3783 1013,3782 1013,3781 1012,3781 1012,3780 1012,3780 1011,3779 1011,3778 939,3678 938,3678 938,3677 938,3676 937,3676 937,3675 936,3675 935,3673 870,3568 870,3568 870,3568 870,3568 870,3568 870,3567 869,3567 869,3566 869,3566 869,3566 869,3566 869,3565 869,3565 869,3565 868,3565 868,3565 868,3565 868,3564 868,3564 868,3563 867,3563 867,3563 867,3563 867,3562 867,3562 809,3454 806,3448 755,3336 755,3336 755,3336 755,3335 754,3334 754,3333 754,3333 754,3332 753,3330 710,3215 709,3214 709,3213 708,3212 708,3212 708,3211 708,3210 708,3210 708,3209 672,3092 672,3092 672,3092 672,3091 671,3089 671,3088 671,3087 671,3087 671,3086 643,2966 643,2966 642,2965 642,2963 641,2962 641,2961 641,2960 621,2839 621,2833 609,2710 609,2710 608,2709 608,2708 608,2707 608,2707 608,2706 608,2704 604,2581 604,2579 604,2576 608,2453 608,2451 608,2450 608,2450 608,2449 608,2448 609,2447 609,2447 621,2324 621,2318 641,2197 641,2196 641,2195 642,2194 642,2192 643,2191 643,2191 671,2071 671,2070 671,2070 671,2069 671,2068 672,2066 672,2065 672,2065 672,2065 708,1948 708,1947 708,1947 708,1946 708,1945 708,1945 709,1944 709,1943 710,1942 753,1827 754,1825 754,1824 754,1824 754,1823 755,1822 755,1821 755,1821 755,1821 806,1709 809,1703 867,1595 867,1595 867,1594 867,1594 867,1594 868,1594 868,1593 868,1593 868,1592 868,1592 868,1592 869,1592 869,1592 869,1592 869,1591 869,1591 869,1591 869,1591 869,1590 870,1590 870,1589 870,1589 870,1589 870,1589 870,1589 935,1484 936,1482 937,1482 937,1481 938,1481 938,1480 938,1479 939,1479 1011,1379 1011,1378 1012,1377 1012,1377 1012,1376 1013,1376 1013,1375 1015,1374 1092,1279 1092,1279 1092,1278 1093,1278 1093,1278 1094,1277 1094,1277 1095,1275 1096,1275 1097,1274 1180,1185 1185,1180 1274,1097 1275,1096 1275,1095 1277,1094 1277,1094 1278,1093 1278,1093 1278,1092 1279,1092 1279,1092 1374,1015 1375,1013 1376,1013 1376,1012 1377,1012 1377,1012 1378,1011 1379,1011 1479,939 1479,938 1480,938 1481,938 1481,937 1482,937 1482,936 1484,935 1589,870 1589,870 1589,870 1589,870 1589,870 1590,870 1590,869 1591,869 1591,869 1591,869 1591,869 1592,869 1592,869 1592,869 1592,868 1592,868 1592,868 1593,868 1593,868 1594,868 1594,867 1594,867 1594,867 1595,867 1595,867 1703,809 1709,806 1821,755 1821,755 1821,755 1822,755 1823,754 1824,754 1824,754 1825,754 1827,753 1942,710 1943,709 1944,709 1945,708 1945,708 1946,708 1947,708 1947,708 1948,708 2065,672 2065,672 2065,672 2066,672 2068,671 2069,671 2070,671 2070,671 2071,671 2191,643 2191,643 2192,642 2194,642 2195,641 2196,641 2197,641 2318,621 2324,621 2447,609 2447,609 2448,608 2449,608 2450,608 2450,608 2451,608 2453,608 2576,604 2579,604 2581,604 2702,608 2702,809 Z M 2702,1509 L 2648,1503 2579,1501 2509,1503 2438,1510 2369,1522 2300,1538 2233,1558 2167,1583 2103,1612 2040,1646 1980,1683 1923,1724 1868,1769 1817,1817 1769,1868 1724,1923 1683,1980 1646,2040 1612,2103 1583,2167 1558,2233 1538,2300 1522,2369 1510,2438 1503,2509 1501,2579 1503,2648 1510,2719 1522,2788 1538,2857 1558,2924 1583,2990 1612,3054 1646,3117 1683,3177 1724,3234 1769,3289 1817,3340 1868,3388 1923,3433 1980,3474 2040,3511 2103,3545 2167,3574 2233,3599 2300,3619 2369,3635 2438,3647 2509,3654 2579,3656 2648,3654 2702,3648 2702,3849 2665,3853 2658,3853 2581,3856 2579,3856 2576,3856 2499,3853 2492,3853 2416,3845 2409,3845 2333,3832 2332,3832 2332,3832 2331,3832 2330,3832 2328,3831 2327,3831 2327,3831 2327,3831 2252,3813 2251,3813 2251,3813 2250,3813 2248,3813 2248,3813 2247,3812 2246,3812 2245,3812 2172,3789 2171,3789 2171,3789 2170,3789 2169,3789 2169,3789 2168,3788 2167,3788 2166,3787 2094,3760 2092,3760 2091,3759 2091,3759 2090,3759 2089,3758 2088,3758 2088,3758 2088,3758 2017,3726 2011,3723 1943,3686 1942,3686 1942,3686 1942,3686 1942,3686 1941,3686 1941,3686 1941,3686 1940,3685 1940,3685 1940,3685 1940,3685 1940,3685 1939,3685 1939,3685 1939,3685 1939,3685 1938,3684 1938,3684 1938,3684 1937,3684 1937,3684 1937,3684 1937,3683 1937,3683 1872,3642 1870,3642 1869,3641 1869,3641 1868,3640 1867,3640 1866,3639 1866,3638 1804,3594 1803,3594 1802,3593 1801,3592 1801,3592 1800,3591 1799,3591 1798,3590 1739,3541 1734,3536 1678,3484 1673,3479 1621,3423 1616,3418 1567,3359 1566,3358 1566,3357 1565,3356 1565,3356 1564,3355 1563,3354 1563,3353 1519,3291 1518,3291 1517,3290 1517,3289 1516,3288 1516,3288 1515,3287 1515,3285 1474,3220 1474,3220 1473,3220 1473,3220 1473,3220 1473,3219 1473,3219 1473,3219 1472,3218 1472,3218 1472,3218 1472,3218 1472,3217 1472,3217 1472,3217 1472,3217 1472,3217 1471,3216 1471,3216 1471,3216 1471,3215 1471,3215 1471,3215 1471,3215 1471,3214 1434,3146 1431,3140 1399,3069 1399,3069 1399,3069 1399,3068 1398,3067 1398,3066 1398,3066 1397,3065 1397,3063 1370,2991 1369,2990 1369,2989 1368,2988 1368,2988 1368,2987 1368,2986 1368,2986 1368,2985 1345,2912 1345,2911 1345,2910 1344,2909 1344,2909 1344,2907 1344,2906 1344,2906 1344,2905 1326,2830 1326,2830 1326,2830 1326,2829 1325,2827 1325,2826 1325,2825 1325,2825 1325,2824 1312,2748 1312,2741 1304,2665 1304,2658 1301,2581 1301,2579 1301,2576 1304,2499 1304,2492 1312,2416 1312,2409 1325,2333 1325,2332 1325,2332 1325,2331 1325,2330 1326,2328 1326,2327 1326,2327 1326,2327 1344,2252 1344,2251 1344,2251 1344,2250 1344,2248 1344,2248 1345,2247 1345,2246 1345,2245 1368,2172 1368,2171 1368,2171 1368,2170 1368,2169 1368,2169 1369,2168 1369,2167 1370,2166 1397,2094 1397,2092 1398,2091 1398,2091 1398,2090 1399,2089 1399,2088 1399,2088 1399,2088 1431,2017 1434,2011 1471,1943 1471,1942 1471,1942 1471,1942 1471,1942 1471,1941 1471,1941 1471,1941 1472,1940 1472,1940 1472,1940 1472,1940 1472,1940 1472,1939 1472,1939 1472,1939 1472,1939 1473,1938 1473,1938 1473,1938 1473,1937 1473,1937 1473,1937 1474,1937 1474,1937 1515,1872 1515,1870 1516,1869 1516,1869 1517,1868 1517,1867 1518,1866 1519,1866 1563,1804 1563,1803 1564,1802 1565,1801 1565,1801 1566,1800 1566,1799 1567,1798 1616,1739 1621,1734 1673,1678 1678,1673 1734,1621 1739,1616 1798,1567 1799,1566 1800,1566 1801,1565 1801,1565 1802,1564 1803,1563 1804,1563 1866,1519 1866,1518 1867,1517 1868,1517 1869,1516 1869,1516 1870,1515 1872,1515 1937,1474 1937,1474 1937,1473 1937,1473 1937,1473 1938,1473 1938,1473 1938,1473 1939,1472 1939,1472 1939,1472 1939,1472 1940,1472 1940,1472 1940,1472 1940,1472 1940,1472 1941,1471 1941,1471 1941,1471 1942,1471 1942,1471 1942,1471 1942,1471 1943,1471 2011,1434 2017,1431 2088,1399 2088,1399 2088,1399 2089,1399 2090,1398 2091,1398 2091,1398 2092,1397 2094,1397 2166,1370 2167,1369 2168,1369 2169,1368 2169,1368 2170,1368 2171,1368 2171,1368 2172,1368 2245,1345 2246,1345 2247,1345 2248,1344 2248,1344 2250,1344 2251,1344 2251,1344 2252,1344 2327,1326 2327,1326 2327,1326 2328,1326 2330,1325 2331,1325 2332,1325 2332,1325 2333,1325 2409,1312 2416,1312 2492,1304 2499,1304 2576,1301 2579,1301 2581,1301 2658,1304 2665,1304 2702,1308 2702,1509 Z "/>
       </g>
      </g>
      <g class="com.sun.star.drawing.PolyPolygonShape">
       <g id="id7">
        <rect class="BoundingBox" stroke="none" fill="none" x="2453" y="703" width="2001" height="3752"/>
        <path fill="rgb(129,212,26)" stroke="none" d="M 2454,3749 L 2501,3753 2579,3756 2654,3753 2731,3746 2807,3733 2882,3716 2955,3694 3027,3666 3097,3635 3166,3598 3231,3557 3294,3512 3354,3463 3410,3411 3462,3355 3511,3295 3556,3232 3597,3167 3634,3098 3665,3028 3693,2956 3715,2883 3732,2808 3745,2732 3752,2655 3755,2579 3752,2502 3745,2425 3732,2349 3715,2274 3693,2201 3665,2129 3634,2059 3597,1990 3556,1925 3511,1862 3462,1802 3410,1746 3354,1694 3294,1645 3231,1600 3166,1559 3097,1522 3027,1491 2955,1463 2882,1441 2807,1424 2731,1411 2654,1404 2579,1401 2501,1404 2454,1408 2454,708 2455,708 2579,704 2700,708 2822,720 2943,740 3062,768 3179,803 3294,847 3406,897 3514,955 3619,1020 3719,1092 3813,1170 3903,1253 3986,1343 4064,1437 4136,1537 4201,1642 4259,1750 4309,1862 4353,1977 4388,2094 4416,2213 4436,2334 4448,2456 4452,2579 4448,2701 4436,2823 4416,2944 4388,3063 4353,3180 4309,3295 4259,3407 4201,3515 4136,3620 4064,3720 3986,3814 3903,3904 3813,3987 3719,4065 3619,4137 3514,4202 3406,4260 3294,4310 3179,4354 3062,4389 2943,4417 2822,4437 2700,4449 2579,4453 2455,4449 2454,4449 2454,3749 Z "/>
       </g>
      </g>
      <g class="com.sun.star.drawing.PolyPolygonShape">
       <g id="id8">
        <rect class="BoundingBox" stroke="none" fill="none" x="2452" y="603" width="2102" height="3952"/>
        <path fill="rgb(0,0,0)" stroke="none" d="M 2453,4348 L 2462,4349 2579,4353 2693,4349 2809,4338 2923,4319 3036,4292 3147,4259 3255,4218 3361,4170 3464,4115 3563,4053 3658,3986 3747,3912 3832,3833 3911,3748 3985,3659 4052,3564 4114,3465 4169,3362 4217,3256 4258,3148 4291,3037 4318,2924 4337,2810 4348,2694 4352,2579 4348,2463 4337,2347 4318,2233 4291,2120 4258,2009 4217,1901 4169,1795 4114,1692 4052,1593 3985,1498 3911,1409 3832,1324 3747,1245 3658,1171 3563,1104 3464,1042 3361,987 3255,939 3147,898 3036,865 2923,838 2809,819 2693,808 2579,804 2462,808 2453,809 2453,608 2575,604 2579,604 2580,604 2703,608 2705,608 2706,608 2706,608 2707,608 2708,608 2709,609 2709,609 2832,621 2838,621 2959,641 2960,641 2961,641 2962,642 2964,642 2965,643 2965,643 3085,671 3086,671 3086,671 3087,671 3088,671 3090,672 3091,672 3091,672 3091,672 3208,708 3209,708 3209,708 3210,708 3211,708 3211,708 3212,709 3213,709 3214,710 3329,753 3331,754 3332,754 3332,754 3333,754 3334,755 3335,755 3335,755 3335,755 3447,806 3453,809 3561,867 3561,867 3562,867 3562,867 3562,867 3562,868 3563,868 3563,868 3564,868 3564,868 3564,868 3564,869 3564,869 3564,869 3565,869 3565,869 3565,869 3565,869 3566,869 3566,870 3567,870 3567,870 3567,870 3567,870 3567,870 3672,935 3674,936 3674,937 3675,937 3675,938 3676,938 3677,938 3677,939 3777,1011 3778,1011 3779,1012 3779,1012 3780,1012 3780,1013 3781,1013 3782,1015 3877,1092 3877,1092 3878,1092 3878,1093 3878,1093 3879,1094 3879,1094 3881,1095 3881,1096 3882,1097 3971,1180 3976,1185 4059,1274 4060,1275 4061,1275 4062,1277 4062,1277 4063,1278 4063,1278 4064,1278 4064,1279 4064,1279 4141,1374 4143,1375 4143,1376 4144,1376 4144,1377 4144,1377 4145,1378 4145,1379 4217,1479 4218,1479 4218,1480 4218,1481 4219,1481 4219,1482 4220,1482 4221,1484 4286,1589 4286,1589 4286,1589 4286,1589 4286,1589 4286,1590 4287,1590 4287,1591 4287,1591 4287,1591 4287,1591 4287,1592 4287,1592 4287,1592 4288,1592 4288,1592 4288,1592 4288,1593 4288,1593 4288,1594 4289,1594 4289,1594 4289,1594 4289,1595 4289,1595 4347,1703 4350,1709 4401,1821 4401,1821 4401,1821 4401,1822 4402,1823 4402,1824 4402,1824 4402,1825 4403,1827 4446,1942 4447,1943 4447,1944 4448,1945 4448,1945 4448,1946 4448,1947 4448,1947 4448,1948 4484,2065 4484,2065 4484,2065 4484,2066 4485,2068 4485,2069 4485,2070 4485,2070 4485,2071 4513,2191 4513,2191 4514,2192 4514,2194 4515,2195 4515,2196 4515,2197 4535,2318 4535,2324 4547,2447 4547,2447 4548,2448 4548,2449 4548,2450 4548,2450 4548,2451 4548,2453 4552,2576 4552,2579 4552,2581 4548,2704 4548,2706 4548,2707 4548,2707 4548,2708 4548,2709 4547,2710 4547,2710 4535,2833 4535,2839 4515,2960 4515,2961 4515,2962 4514,2963 4514,2965 4513,2966 4513,2966 4485,3086 4485,3087 4485,3087 4485,3088 4485,3089 4484,3091 4484,3092 4484,3092 4484,3092 4448,3209 4448,3210 4448,3210 4448,3211 4448,3212 4448,3212 4447,3213 4447,3214 4446,3215 4403,3330 4402,3332 4402,3333 4402,3333 4402,3334 4401,3335 4401,3336 4401,3336 4401,3336 4350,3448 4347,3454 4289,3562 4289,3562 4289,3563 4289,3563 4289,3563 4288,3563 4288,3564 4288,3564 4288,3565 4288,3565 4288,3565 4287,3565 4287,3565 4287,3565 4287,3566 4287,3566 4287,3566 4287,3566 4287,3567 4286,3567 4286,3568 4286,3568 4286,3568 4286,3568 4286,3568 4221,3673 4220,3675 4219,3675 4219,3676 4218,3676 4218,3677 4218,3678 4217,3678 4145,3778 4145,3779 4144,3780 4144,3780 4144,3781 4143,3781 4143,3782 4141,3783 4064,3878 4064,3878 4064,3879 4063,3879 4063,3879 4062,3880 4062,3880 4061,3882 4060,3882 4059,3883 3976,3972 3971,3977 3882,4060 3881,4061 3881,4062 3879,4063 3879,4063 3878,4064 3878,4064 3878,4065 3877,4065 3877,4065 3782,4142 3781,4144 3780,4144 3780,4145 3779,4145 3779,4145 3778,4146 3777,4146 3677,4218 3677,4219 3676,4219 3675,4219 3675,4220 3674,4220 3674,4221 3672,4222 3567,4287 3567,4287 3567,4287 3567,4287 3567,4287 3566,4287 3566,4288 3565,4288 3565,4288 3565,4288 3565,4288 3564,4288 3564,4288 3564,4288 3564,4289 3564,4289 3564,4289 3563,4289 3563,4289 3562,4289 3562,4290 3562,4290 3562,4290 3561,4290 3561,4290 3453,4348 3447,4351 3335,4402 3335,4402 3335,4402 3334,4402 3333,4403 3332,4403 3332,4403 3331,4403 3329,4404 3214,4447 3213,4448 3212,4448 3211,4449 3211,4449 3210,4449 3209,4449 3209,4449 3208,4449 3091,4485 3091,4485 3091,4485 3090,4485 3088,4486 3087,4486 3086,4486 3086,4486 3085,4486 2965,4514 2965,4514 2964,4515 2962,4515 2961,4516 2960,4516 2959,4516 2838,4536 2832,4536 2709,4548 2709,4548 2708,4549 2707,4549 2706,4549 2706,4549 2705,4549 2703,4549 2580,4553 2579,4553 2575,4553 2453,4549 2453,4348 Z M 2453,3648 L 2508,3654 2579,3656 2647,3654 2718,3647 2787,3635 2856,3619 2923,3599 2989,3574 3053,3545 3116,3511 3176,3474 3233,3433 3288,3388 3339,3340 3387,3289 3432,3234 3473,3177 3510,3117 3544,3054 3573,2990 3598,2924 3618,2857 3634,2788 3646,2719 3653,2648 3655,2579 3653,2509 3646,2438 3634,2369 3618,2300 3598,2233 3573,2167 3544,2103 3510,2040 3473,1980 3432,1923 3387,1868 3339,1817 3288,1769 3233,1724 3176,1683 3116,1646 3053,1612 2989,1583 2923,1558 2856,1538 2787,1522 2718,1510 2647,1503 2579,1501 2508,1503 2453,1509 2453,1308 2491,1304 2498,1304 2575,1301 2579,1301 2580,1301 2657,1304 2664,1304 2740,1312 2747,1312 2823,1325 2824,1325 2824,1325 2825,1325 2826,1325 2828,1326 2829,1326 2829,1326 2829,1326 2904,1344 2905,1344 2905,1344 2906,1344 2908,1344 2908,1344 2909,1345 2910,1345 2911,1345 2984,1368 2985,1368 2985,1368 2986,1368 2987,1368 2987,1368 2988,1369 2989,1369 2990,1370 3062,1397 3064,1397 3065,1398 3065,1398 3066,1398 3067,1399 3068,1399 3068,1399 3068,1399 3139,1431 3145,1434 3213,1471 3214,1471 3214,1471 3214,1471 3214,1471 3215,1471 3215,1471 3215,1471 3216,1472 3216,1472 3216,1472 3216,1472 3216,1472 3217,1472 3217,1472 3217,1472 3217,1472 3218,1473 3218,1473 3218,1473 3219,1473 3219,1473 3219,1473 3219,1474 3219,1474 3284,1515 3286,1515 3287,1516 3287,1516 3288,1517 3289,1517 3290,1518 3290,1519 3352,1563 3353,1563 3354,1564 3355,1565 3355,1565 3356,1566 3357,1566 3358,1567 3417,1616 3422,1621 3478,1673 3483,1678 3535,1734 3540,1739 3589,1798 3590,1799 3590,1800 3591,1801 3591,1801 3592,1802 3593,1803 3593,1804 3637,1866 3638,1866 3639,1867 3639,1868 3640,1869 3640,1869 3641,1870 3641,1872 3682,1937 3682,1937 3683,1937 3683,1937 3683,1937 3683,1938 3683,1938 3683,1938 3684,1939 3684,1939 3684,1939 3684,1939 3684,1940 3684,1940 3684,1940 3684,1940 3684,1940 3685,1941 3685,1941 3685,1941 3685,1942 3685,1942 3685,1942 3685,1942 3685,1943 3722,2011 3725,2017 3757,2088 3757,2088 3757,2088 3757,2089 3758,2090 3758,2091 3758,2091 3759,2092 3759,2094 3786,2166 3787,2167 3787,2168 3788,2169 3788,2169 3788,2170 3788,2171 3788,2171 3788,2172 3811,2245 3811,2246 3811,2247 3812,2248 3812,2248 3812,2250 3812,2251 3812,2251 3812,2252 3830,2327 3830,2327 3830,2327 3830,2328 3831,2330 3831,2331 3831,2332 3831,2332 3831,2333 3844,2409 3844,2416 3852,2492 3852,2499 3855,2576 3855,2579 3855,2581 3852,2658 3852,2665 3844,2741 3844,2748 3831,2824 3831,2825 3831,2825 3831,2826 3831,2827 3830,2829 3830,2830 3830,2830 3830,2830 3812,2905 3812,2906 3812,2906 3812,2907 3812,2909 3812,2909 3811,2910 3811,2911 3811,2912 3788,2985 3788,2986 3788,2986 3788,2987 3788,2988 3788,2988 3787,2989 3787,2990 3786,2991 3759,3063 3759,3065 3758,3066 3758,3066 3758,3067 3757,3068 3757,3069 3757,3069 3757,3069 3725,3140 3722,3146 3685,3214 3685,3215 3685,3215 3685,3215 3685,3215 3685,3216 3685,3216 3685,3216 3684,3217 3684,3217 3684,3217 3684,3217 3684,3217 3684,3218 3684,3218 3684,3218 3684,3218 3683,3219 3683,3219 3683,3219 3683,3220 3683,3220 3683,3220 3682,3220 3682,3220 3641,3285 3641,3287 3640,3288 3640,3288 3639,3289 3639,3290 3638,3291 3637,3291 3593,3353 3593,3354 3592,3355 3591,3356 3591,3356 3590,3357 3590,3358 3589,3359 3540,3418 3535,3423 3483,3479 3478,3484 3422,3536 3417,3541 3358,3590 3357,3591 3356,3591 3355,3592 3355,3592 3354,3593 3353,3594 3352,3594 3290,3638 3290,3639 3289,3640 3288,3640 3287,3641 3287,3641 3286,3642 3284,3642 3219,3683 3219,3683 3219,3684 3219,3684 3219,3684 3218,3684 3218,3684 3218,3684 3217,3685 3217,3685 3217,3685 3217,3685 3216,3685 3216,3685 3216,3685 3216,3685 3216,3685 3215,3686 3215,3686 3215,3686 3214,3686 3214,3686 3214,3686 3214,3686 3213,3686 3145,3723 3139,3726 3068,3758 3068,3758 3068,3758 3067,3758 3066,3759 3065,3759 3065,3759 3064,3760 3062,3760 2990,3787 2989,3788 2988,3788 2987,3789 2987,3789 2986,3789 2985,3789 2985,3789 2984,3789 2911,3812 2910,3812 2909,3812 2908,3813 2908,3813 2906,3813 2905,3813 2905,3813 2904,3813 2829,3831 2829,3831 2829,3831 2828,3831 2826,3832 2825,3832 2824,3832 2824,3832 2823,3832 2747,3845 2740,3845 2664,3853 2657,3853 2580,3856 2579,3856 2575,3856 2498,3853 2491,3853 2453,3849 2453,3648 Z "/>
       </g>
      </g>
      <g class="com.sun.star.drawing.PolyPolygonShape">
       <g id="id9">
        <rect class="BoundingBox" stroke="none" fill="none" x="3361" y="1196" width="934" height="1168"/>
        <path fill="rgb(217,153,8)" stroke="none" d="M 3742,2347 L 3725,2272 3702,2197 3675,2125 3643,2054 3606,1985 3565,1919 3519,1856 3470,1796 3417,1739 3361,1686 3850,1197 3906,1250 3990,1339 4068,1434 4140,1534 4205,1639 4263,1748 4293,1814 3745,2363 3742,2347 Z "/>
       </g>
      </g>
      <g class="com.sun.star.drawing.PolyPolygonShape">
       <g id="id10">
        <rect class="BoundingBox" stroke="none" fill="none" x="3717" y="1717" width="619" height="772"/>
        <path fill="rgb(0,0,0)" stroke="none" d="M 3755,2424 L 3742,2347 3725,2272 3717,2248 4247,1718 4263,1748 4314,1860 4334,1914 3761,2488 3755,2424 Z "/>
       </g>
      </g>
      <g class="com.sun.star.drawing.PolyPolygonShape">
       <g id="id11">
        <rect class="BoundingBox" stroke="none" fill="none" x="3282" y="1130" width="642" height="626"/>
        <path fill="rgb(0,0,0)" stroke="none" d="M 3417,1739 L 3360,1686 3300,1637 3282,1623 3774,1131 3817,1166 3906,1250 3922,1266 3433,1755 3417,1739 Z "/>
       </g>
      </g>
      <g class="com.sun.star.drawing.PolyPolygonShape">
       <g id="id12">
        <rect class="BoundingBox" stroke="none" fill="none" x="3354" y="1691" width="437" height="649"/>
        <path fill="rgb(178,89,0)" stroke="none" d="M 3627,2339 L 3618,2301 3598,2234 3573,2168 3544,2104 3510,2041 3473,1981 3432,1924 3387,1869 3354,1834 3496,1692 3535,1735 3540,1740 3589,1799 3590,1800 3590,1801 3591,1802 3591,1802 3592,1803 3593,1804 3593,1805 3637,1867 3638,1867 3639,1868 3639,1869 3640,1870 3640,1870 3641,1871 3641,1873 3682,1938 3682,1938 3683,1938 3683,1938 3683,1938 3683,1939 3683,1939 3683,1939 3684,1940 3684,1940 3684,1940 3684,1940 3684,1941 3684,1941 3684,1941 3684,1941 3684,1941 3685,1942 3685,1942 3685,1942 3685,1943 3685,1943 3685,1943 3685,1943 3685,1944 3722,2012 3725,2018 3757,2089 3757,2089 3757,2089 3757,2090 3758,2091 3758,2092 3758,2092 3759,2093 3759,2095 3786,2167 3787,2168 3787,2169 3788,2170 3788,2170 3788,2171 3788,2172 3788,2172 3788,2173 3789,2176 3627,2339 Z "/>
       </g>
      </g>
      <g class="com.sun.star.drawing.PolyPolygonShape">
       <g id="id13">
        <rect class="BoundingBox" stroke="none" fill="none" x="3847" y="1199" width="472" height="598"/>
        <path fill="rgb(178,89,0)" stroke="none" d="M 3988,1200 L 4059,1275 4060,1276 4061,1276 4062,1278 4062,1278 4063,1279 4063,1279 4064,1279 4064,1280 4064,1280 4141,1375 4143,1376 4143,1377 4144,1377 4144,1378 4144,1378 4145,1379 4145,1380 4217,1480 4218,1480 4218,1481 4218,1482 4219,1482 4219,1483 4220,1483 4221,1485 4286,1590 4286,1590 4286,1590 4286,1590 4286,1590 4286,1591 4287,1591 4287,1592 4287,1592 4287,1592 4287,1592 4287,1593 4287,1593 4287,1593 4288,1593 4288,1593 4288,1593 4288,1594 4288,1594 4288,1595 4289,1595 4289,1595 4289,1595 4289,1596 4289,1596 4317,1649 4169,1796 4169,1796 4114,1693 4052,1594 3985,1499 3911,1410 3847,1341 3988,1200 Z "/>
       </g>
      </g>
      <g class="com.sun.star.drawing.PolyPolygonShape">
       <g id="id14">
        <rect class="BoundingBox" stroke="none" fill="none" x="2033" y="2033" width="2789" height="2789"/>
        <path fill="rgb(0,128,255)" stroke="none" d="M 3076,2133 L 3774,2133 3774,3076 4720,3076 4720,3774 3774,3774 3774,4720 3076,4720 3076,3774 2133,3774 2133,3076 3076,3076 3076,2133 Z "/>
        <path fill="none" stroke="rgb(0,0,0)" stroke-width="200" stroke-linejoin="round" d="M 3076,2133 L 3774,2133 3774,3076 4720,3076 4720,3774 3774,3774 3774,4720 3076,4720 3076,3774 2133,3774 2133,3076 3076,3076 3076,2133 Z "/>
       </g>
      </g>
     </g>
    </g>
   </g>
  </g>
 </g>
</svg>