<?xml version="1.0" encoding="UTF-8"?>
<!DOCTYPE svg PUBLIC "-//W3C//DTD SVG 1.1//EN" "http://www.w3.org/Graphics/SVG/1.1/DTD/svg11.dtd">
<svg version="1.2" width="51.06mm" height="51.06mm" viewBox="0 0 5106 5106" preserveAspectRatio="xMidYMid" fill-rule="evenodd" stroke-width="28.222" stroke-linejoin="round" xmlns="http://www.w3.org/2000/svg" xmlns:ooo="http://xml.openoffice.org/svg/export" xmlns:xlink="http://www.w3.org/1999/xlink" xmlns:presentation="http://sun.com/xmlns/staroffice/presentation" xmlns:smil="http://www.w3.org/2001/SMIL20/" xmlns:anim="urn:oasis:names:tc:opendocument:xmlns:animation:1.0" xmlns:svg="urn:oasis:names:tc:opendocument:xmlns:svg-compatible:1.0" xml:space="preserve">
 <defs class="ClipPathGroup">
  <clipPath id="presentation_clip_path" clipPathUnits="userSpaceOnUse">
   <rect x="0" y="0" width="5106" height="5106"/>
  </clipPath>
  <clipPath id="presentation_clip_path_shrink" clipPathUnits="userSpaceOnUse">
   <rect x="5" y="5" width="5096" height="5096"/>
  </clipPath>
 </defs>
 <defs class="TextShapeIndex">
  <g ooo:slide="id1" ooo:id-list="id3 id4 id5"/>
 </defs>
 <defs class="EmbeddedBulletChars">
  <g id="bullet-char-template-57356" transform="scale(0.00048828125,-0.00048828125)">
   <path d="M 580,1141 L 1163,571 580,0 -4,571 580,1141 Z"/>
  </g>
  <g id="bullet-char-template-57354" transform="scale(0.00048828125,-0.00048828125)">
   <path d="M 8,1128 L 1137,1128 1137,0 8,0 8,1128 Z"/>
  </g>
  <g id="bullet-char-template-10146" transform="scale(0.00048828125,-0.00048828125)">
   <path d="M 174,0 L 602,739 174,1481 1456,739 174,0 Z M 1358,739 L 309,1346 659,739 1358,739 Z"/>
  </g>
  <g id="bullet-char-template-10132" transform="scale(0.00048828125,-0.00048828125)">
   <path d="M 2015,739 L 1276,0 717,0 1260,543 174,543 174,936 1260,936 717,1481 1274,1481 2015,739 Z"/>
  </g>
  <g id="bullet-char-template-10007" transform="scale(0.00048828125,-0.00048828125)">
   <path d="M 0,-2 C -7,14 -16,27 -25,37 L 356,567 C 262,823 215,952 215,954 215,979 228,992 255,992 264,992 276,990 289,987 310,991 331,999 354,1012 L 381,999 492,748 772,1049 836,1024 860,1049 C 881,1039 901,1025 922,1006 886,937 835,863 770,784 769,783 710,716 594,584 L 774,223 C 774,196 753,168 711,139 L 727,119 C 717,90 699,76 672,76 641,76 570,178 457,381 L 164,-76 C 142,-110 111,-127 72,-127 30,-127 9,-110 8,-76 1,-67 -2,-52 -2,-32 -2,-23 -1,-13 0,-2 Z"/>
  </g>
  <g id="bullet-char-template-10004" transform="scale(0.00048828125,-0.00048828125)">
   <path d="M 285,-33 C 182,-33 111,30 74,156 52,228 41,333 41,471 41,549 55,616 82,672 116,743 169,778 240,778 293,778 328,747 346,684 L 369,508 C 377,444 397,411 428,410 L 1163,1116 C 1174,1127 1196,1133 1229,1133 1271,1133 1292,1118 1292,1087 L 1292,965 C 1292,929 1282,901 1262,881 L 442,47 C 390,-6 338,-33 285,-33 Z"/>
  </g>
  <g id="bullet-char-template-9679" transform="scale(0.00048828125,-0.00048828125)">
   <path d="M 813,0 C 632,0 489,54 383,161 276,268 223,411 223,592 223,773 276,916 383,1023 489,1130 632,1184 813,1184 992,1184 1136,1130 1245,1023 1353,916 1407,772 1407,592 1407,412 1353,268 1245,161 1136,54 992,0 813,0 Z"/>
  </g>
  <g id="bullet-char-template-8226" transform="scale(0.00048828125,-0.00048828125)">
   <path d="M 346,457 C 273,457 209,483 155,535 101,586 74,649 74,723 74,796 101,859 155,911 209,963 273,989 346,989 419,989 480,963 531,910 582,859 608,796 608,723 608,648 583,586 532,535 482,483 420,457 346,457 Z"/>
  </g>
  <g id="bullet-char-template-8211" transform="scale(0.00048828125,-0.00048828125)">
   <path d="M -4,459 L 1135,459 1135,606 -4,606 -4,459 Z"/>
  </g>
  <g id="bullet-char-template-61548" transform="scale(0.00048828125,-0.00048828125)">
   <path d="M 173,740 C 173,903 231,1043 346,1159 462,1274 601,1332 765,1332 928,1332 1067,1274 1183,1159 1299,1043 1357,903 1357,740 1357,577 1299,437 1183,322 1067,206 928,148 765,148 601,148 462,206 346,322 231,437 173,577 173,740 Z"/>
  </g>
 </defs>
 <g>
  <g id="id2" class="Master_Slide">
   <g id="bg-id2" class="Background"/>
   <g id="bo-id2" class="BackgroundObjects"/>
  </g>
 </g>
 <g class="SlideGroup">
  <g>
   <g id="container-id1">
    <g id="id1" class="Slide" clip-path="url(#presentation_clip_path)">
     <g class="Page">
      <g class="Group">
       <g class="com.sun.star.drawing.PolyPolygonShape">
        <g id="id3">
         <rect class="BoundingBox" stroke="none" fill="none" x="3383" y="929" width="1083" height="1294"/>
         <path fill="rgb(234,117,0)" stroke="none" d="M 3909,930 L 3557,1124 3383,1457 3557,1865 3887,2222 4244,2023 4464,1646 4244,1177 3909,930 Z "/>
        </g>
       </g>
       <g class="com.sun.star.drawing.PolyPolygonShape">
        <g id="id4">
         <rect class="BoundingBox" stroke="none" fill="none" x="435" y="435" width="4464" height="4235"/>
         <path fill="rgb(255,128,0)" stroke="none" d="M 2547,2294 L 3383,1457 3472,1531 3555,1612 3631,1699 3699,1793 3759,1893 3811,1998 3854,2108 3887,2222 2739,3370 2719,3388 2698,3404 2675,3417 2652,3428 2627,3437 2603,3443 2577,3446 2552,3448 2527,3446 2501,3443 2477,3437 2452,3428 2429,3417 2406,3404 2385,3388 2365,3370 1591,2595 1576,2580 1564,2563 1553,2545 1545,2526 1538,2507 1533,2487 1530,2467 1529,2446 1530,2426 1533,2406 1538,2386 1545,2367 1553,2348 1564,2330 1576,2313 1591,2297 1921,1967 1937,1952 1954,1940 1972,1929 1991,1920 2010,1914 2030,1909 2050,1906 2070,1905 2091,1906 2111,1909 2131,1914 2150,1920 2169,1929 2187,1940 2204,1952 2220,1967 2547,2294 Z M 4835,974 L 4500,639 4484,624 4467,612 4449,601 4430,592 4410,585 4391,581 4370,578 4350,577 4330,578 4310,581 4290,585 4270,592 4252,601 4233,612 4216,624 4200,639 3909,930 3995,1005 4076,1084 4152,1168 4225,1256 4292,1348 4355,1443 4412,1542 4464,1645 4835,1274 4850,1258 4862,1240 4873,1222 4882,1204 4889,1184 4893,1164 4896,1144 4897,1124 4896,1103 4893,1083 4889,1063 4882,1044 4873,1025 4862,1007 4850,990 4835,974 Z M 3927,2552 L 3920,2693 3899,2829 3865,2961 3819,3087 3761,3208 3692,3321 3613,3427 3525,3524 3427,3613 3321,3692 3208,3761 3088,3819 2961,3865 2830,3899 2693,3920 2553,3927 2412,3920 2275,3899 2144,3865 2017,3819 1897,3761 1784,3692 1678,3613 1580,3525 1491,3427 1412,3321 1343,3208 1285,3088 1239,2961 1205,2830 1184,2693 1177,2552 1184,2412 1205,2275 1239,2144 1285,2017 1343,1897 1412,1784 1491,1678 1580,1580 1677,1491 1783,1412 1897,1343 2017,1285 2143,1239 2275,1205 2412,1184 2553,1177 2668,1182 2781,1196 2892,1219 2998,1251 3101,1291 3200,1339 3294,1394 3383,1457 3909,930 3767,820 3615,723 3455,638 3287,567 3112,511 2931,470 2744,445 2553,436 2336,447 2126,479 1923,531 1729,602 1544,692 1369,798 1206,919 1056,1056 919,1206 797,1369 691,1544 602,1729 531,1923 479,2126 447,2336 436,2552 447,2769 479,2979 531,3182 602,3376 692,3561 798,3735 919,3898 1056,4048 1206,4185 1369,4307 1544,4413 1729,4502 1923,4573 2126,4625 2336,4657 2553,4668 2769,4657 2979,4625 3182,4573 3376,4502 3561,4413 3735,4307 3898,4185 4048,4048 4185,3898 4307,3735 4413,3561 4502,3376 4573,3181 4625,2979 4657,2769 4668,2552 4665,2431 4654,2312 4638,2195 4615,2080 4586,1967 4551,1857 4510,1750 4464,1646 3887,2222 3904,2302 3917,2384 3925,2468 3927,2552 Z "/>
        </g>
       </g>
      </g>
      <g class="com.sun.star.drawing.CustomShape">
       <g id="id5">
        <rect class="BoundingBox" stroke="none" fill="none" x="2358" y="2358" width="2642" height="2642"/>
        <path fill="rgb(0,128,255)" stroke="none" d="M 3349,2458 L 4007,2458 4007,3349 4899,3349 4899,4007 4007,4007 4007,4899 3349,4899 3349,4007 2458,4007 2458,3349 3349,3349 3349,2458 3349,2458 Z "/>
        <path fill="none" stroke="rgb(0,0,0)" stroke-width="200" stroke-linejoin="round" d="M 3349,2458 L 4007,2458 4007,3349 4899,3349 4899,4007 4007,4007 4007,4899 3349,4899 3349,4007 2458,4007 2458,3349 3349,3349 3349,2458 3349,2458 Z "/>
       </g>
      </g>
     </g>
    </g>
   </g>
  </g>
 </g>
</svg>